<svg width="1622" height="617" viewBox="0 0 1622 617" fill="none" xmlns="http://www.w3.org/2000/svg">
<path d="M1602.59 1.03418C1601.66 56.09 1601.04 111.135 1601.74 166.19C1602.32 212.381 1596.41 261.22 1612.73 306.558C1630.29 355.374 1611.7 398.518 1602.28 447.016C1591.48 502.64 1604.15 559.515 1602.65 615.344" stroke="#E7F7EB" stroke-opacity="0.5" stroke-width="3" stroke-miterlimit="10"/>
<path d="M1547.41 1.03418C1546.29 53.851 1545.7 106.668 1547.81 159.473C1549.79 208.642 1544.9 257.685 1581.44 302.966C1605.63 332.938 1619.17 353.237 1600.62 385.209C1588.04 406.906 1565.24 426.16 1551.84 447.653C1518.76 500.697 1548.72 560.595 1547.47 615.344" stroke="#E7F7EB" stroke-opacity="0.5" stroke-width="3" stroke-miterlimit="10"/>
<path d="M1492.24 1.03418C1491.35 51.0095 1491.25 100.974 1495.32 150.903C1497.11 172.862 1499.62 194.809 1502.7 216.723C1507.51 250.9 1521.98 269.073 1556.83 298.124C1595.73 330.54 1630.82 354.044 1589.95 389.846C1565.36 411.384 1529.04 427.672 1502.62 448.437C1441.51 496.446 1491.88 561.504 1492.32 615.355" stroke="#E7F7EB" stroke-opacity="0.5" stroke-width="3" stroke-miterlimit="10"/>
<path d="M1437.07 1.02344C1436.63 48.146 1437.27 95.2458 1443.59 142.243C1446.39 162.974 1450.15 183.66 1454.48 204.3C1456.79 215.303 1456.37 228.373 1463.13 238.705C1476.35 258.936 1508.51 276.291 1531.79 292.772C1556.56 310.298 1606.77 335.689 1607.93 359.387C1608.66 374.378 1595.34 383.096 1576.82 393.7C1539.4 415.124 1490.16 428.616 1450.84 448.801C1363.74 493.526 1433.81 559.481 1437.11 615.344" stroke="#E7F7EB" stroke-opacity="0.5" stroke-width="3" stroke-miterlimit="10"/>
<path d="M1381.9 1.02344C1381.92 45.8728 1383.27 90.654 1392.01 135.276C1395.87 155.018 1400.94 174.693 1406.47 194.31C1409.55 205.198 1410.08 218.155 1417.38 228.294C1433.6 250.809 1471.85 269.608 1499.28 287.657C1526.87 305.808 1590.5 335.53 1589.95 361.126C1589.61 377.401 1572.77 385.369 1550.39 395.393C1502.38 416.886 1442.65 428.354 1392.73 448.256C1339.93 469.305 1330.23 492.014 1344.07 526.305C1356.31 556.617 1377.98 583.963 1381.92 615.344" stroke="#E7F7EB" stroke-opacity="0.5" stroke-width="3" stroke-miterlimit="10"/>
<path d="M1326.73 1.02344C1327.01 44.8499 1330.25 88.3354 1341.56 131.73C1346.57 150.961 1352.69 170.101 1358.89 189.218C1362.41 200.061 1363.29 212.927 1370.6 223.043C1387.18 246.013 1425.49 265.039 1453.38 283.52C1481.13 301.887 1546.35 332.711 1543.86 358.727C1542.23 375.56 1522.71 383.675 1499.16 393.382C1446.16 415.238 1381.61 426.354 1326.83 446.63C1270.61 467.452 1257.87 490.389 1276.65 525.873C1292.86 556.526 1320.23 583.054 1326.73 615.344" stroke="#E7F7EB" stroke-opacity="0.5" stroke-width="3" stroke-miterlimit="10"/>
<path d="M1271.55 1.02344C1271.99 44.8158 1279.25 87.4375 1293.6 130.446C1299.92 149.415 1306.76 168.328 1312.92 187.32C1316.44 198.152 1316.98 210.836 1324.03 221.02C1339.26 243.069 1374.39 261.777 1400.05 279.917C1425.77 298.091 1484.46 328.074 1480.1 353.17C1477.12 370.207 1454.92 378.777 1431.04 388.619C1377.25 410.76 1313.1 423.444 1258.16 444.607C1201.78 466.339 1184.92 489.241 1208.58 525.373C1228.91 556.413 1262.19 582.065 1271.53 615.367" stroke="#E7F7EB" stroke-opacity="0.5" stroke-width="3" stroke-miterlimit="10"/>
<path d="M1216.37 1.02344C1217.03 45.2704 1228.34 87.1761 1245.77 130.161C1253.41 149.006 1261 167.839 1267.14 186.865C1270.64 197.72 1270.84 210.233 1277.38 220.531C1290.4 241.069 1320.24 258.924 1342.48 276.303C1365.58 294.363 1413.61 321.993 1407.49 345.873C1403.15 362.83 1378.96 372.241 1355.6 382.289C1302.69 405.043 1240.13 419.534 1186.69 441.879C1131.47 464.963 1112.45 488.593 1140.54 524.736C1164.97 556.162 1204.03 580.985 1216.33 615.344" stroke="#E7F7EB" stroke-opacity="0.5" stroke-width="3" stroke-miterlimit="10"/>
<path d="M1161.19 1.02344C1162.1 46.0547 1177.49 87.3466 1198.1 130.548C1207.07 149.347 1215.45 168.214 1221.58 187.377C1225.08 198.311 1225.02 210.552 1230.78 221.076C1240.98 239.728 1264.18 256.322 1282.13 272.677C1301.95 290.749 1336.91 315.015 1328.98 337.371C1323.08 354.045 1297.79 364.513 1275.37 374.89C1224.48 398.462 1164.45 414.965 1113.72 438.674C1060.72 463.463 1041.04 488.275 1072.9 524.031C1101.23 555.856 1145.8 579.917 1161.09 615.344" stroke="#E7F7EB" stroke-opacity="0.5" stroke-width="3" stroke-miterlimit="10"/>
<path d="M1106.02 1.03418C1107.27 47.0543 1126.77 87.7324 1150.63 131.252C1160.93 150.028 1170.15 168.975 1176.33 188.331C1186.09 218.916 1197.34 240.114 1220.58 268.926C1235.53 287.463 1257.71 307.319 1247.66 328.108C1239.8 344.383 1214.56 355.92 1193.13 366.819C1144.9 391.335 1088.05 409.964 1040.82 435.162C990.857 461.815 971.358 488.058 1006.23 523.281C1038.15 555.514 1087.93 578.894 1105.92 615.367" stroke="#E7F7EB" stroke-opacity="0.5" stroke-width="3" stroke-miterlimit="10"/>
<path d="M1050.84 1.03418C1052.49 48.134 1076.15 88.0961 1103.38 131.9C1130.51 175.544 1136.78 220.848 1159.26 265.005C1168.66 283.474 1178.62 299.954 1166.47 318.56C1156.1 334.427 1132.12 346.85 1111.39 358.488C1065.97 383.97 1012.69 404.792 969.283 431.468C922.92 459.962 903.682 487.74 940.889 522.428C975.923 555.093 1030.48 577.859 1050.72 615.355" stroke="#E7F7EB" stroke-opacity="0.5" stroke-width="3" stroke-miterlimit="10"/>
<path d="M995.664 1.03418C997.797 49.1683 1025.73 88.2325 1056.43 132.161C1085.81 174.226 1092.82 216.177 1099.74 260.856C1105.9 300.489 1079.17 321.777 1032.85 350.339C989.99 376.764 940.306 399.723 900.604 427.785C858.004 457.905 838.566 487.206 877.423 521.508C914.952 554.616 973.811 576.836 995.563 615.344" stroke="#E7F7EB" stroke-opacity="0.5" stroke-width="3" stroke-miterlimit="10"/>
<path d="M940.484 1.03418C943.241 50.0434 975.518 87.9029 1009.77 131.684C1041.56 172.294 1053.53 212.154 1043.45 256.423C1027.82 325.084 902.814 370.877 836.107 424.319C796.968 455.666 776.302 486.433 816.206 520.564C855.445 554.127 918.127 575.881 940.383 615.355" stroke="#E7F7EB" stroke-opacity="0.5" stroke-width="3" stroke-miterlimit="10"/>
<path d="M885.313 1.03418C888.814 50.6799 925.518 86.914 963.49 130.093C997.336 168.589 1016.13 209.528 991.983 251.616C954.334 317.208 841.988 364.307 777.294 421.182C740.771 453.279 717.469 485.296 757.795 519.553C797.839 553.559 863.761 574.949 885.272 615.355" stroke="#E7F7EB" stroke-opacity="0.5" stroke-width="3" stroke-miterlimit="10"/>
<path d="M830.164 1.02344C834.591 50.9306 875.581 85.0507 917.316 127.047C953.537 163.509 976.919 206.108 946.353 246.377C897.193 311.162 791.106 359.057 725.808 418.489C690.15 450.938 663.005 483.558 703.069 518.485C742.63 552.957 810.001 574.37 830.124 615.344" stroke="#E7F7EB" stroke-opacity="0.5" stroke-width="3" stroke-miterlimit="10"/>
<path d="M774.982 1.02344C780.515 50.9192 824.484 82.8344 869.76 123.342C909.844 159.224 933.066 200.152 902.097 240.967C852.555 306.286 748.762 355.784 682.759 415.636C646.277 448.722 617.682 480.819 655.634 517.303C692.036 552.298 754.316 575.291 774.901 615.344" stroke="#E7F7EB" stroke-opacity="0.5" stroke-width="3" stroke-miterlimit="10"/>
<path d="M719.824 1.01074C726.424 50.9747 773.31 80.7531 821.967 119.772C865.693 154.835 888.693 194.354 858.389 235.692C810.255 301.352 710.185 352.532 645.209 412.748C609.128 446.186 579.649 478.374 613.213 516.074C644.705 551.445 700.908 576.301 719.743 615.343" stroke="#E7F7EB" stroke-opacity="0.5" stroke-width="3" stroke-miterlimit="10"/>
<path d="M664.646 1.01074C672.213 51.1111 721.936 78.8664 773.792 116.373C820.92 150.471 843.618 188.785 814.802 230.634C769.466 296.453 674.346 349.395 611.724 409.906C576.911 443.538 547.19 476.328 574.557 514.847C599.831 550.422 649.011 577.358 664.586 615.343" stroke="#E7F7EB" stroke-opacity="0.5" stroke-width="3" stroke-miterlimit="10"/>
<path d="M609.473 1.01074C624.223 89.3002 832.03 129.171 771.018 225.872C729.485 291.725 640.281 346.406 580.959 407.144C547.978 440.924 518.498 474.691 538.48 513.642C556.731 549.24 597.942 578.393 609.392 615.343" stroke="#E7F7EB" stroke-opacity="0.5" stroke-width="3" stroke-miterlimit="10"/>
<path d="M554.314 1.01074C570.453 90.7095 783.07 121.67 726.766 221.473C689.66 287.247 607.096 343.621 551.638 404.542C520.709 438.514 491.853 473.509 503.887 512.494C514.813 547.955 547.191 579.302 554.294 615.331" stroke="#E7F7EB" stroke-opacity="0.5" stroke-width="3" stroke-miterlimit="10"/>
<path d="M499.137 1.01074C508.715 51.9181 566.367 74.3428 626.252 107.645C681.912 138.605 702.98 174.282 681.63 217.529C649.212 283.155 573.732 341.109 522.339 402.155C493.462 436.457 465.351 472.691 469.496 511.448C473.259 546.694 496.239 579.961 499.137 615.32" stroke="#E7F7EB" stroke-opacity="0.5" stroke-width="3" stroke-miterlimit="10"/>
<path d="M443.966 1.01074C453.806 52.3159 513.752 73.2517 575.77 105.371C633.784 135.422 653.867 170.475 635.293 214.119C607.464 279.541 539.207 338.904 491.738 400.063C464.693 434.911 437.346 472.088 434.167 510.562C431.269 545.602 444.751 580.291 443.987 615.331" stroke="#E7F7EB" stroke-opacity="0.5" stroke-width="3" stroke-miterlimit="10"/>
<path d="M388.789 1.01074C398.589 52.7705 460.627 72.3993 524.497 103.485C584.624 132.763 603.418 167.326 587.441 211.323C563.736 276.529 502.523 337.086 458.494 398.313C432.878 433.934 406.316 471.554 396.738 509.846C388.004 544.761 392.472 580.245 388.87 615.343" stroke="#E7F7EB" stroke-opacity="0.5" stroke-width="3" stroke-miterlimit="10"/>
<path d="M333.592 1.01074C343.049 53.2933 406.879 71.7741 472.298 102.03C534.336 130.717 551.541 164.905 537.657 209.198C517.292 274.21 462.518 335.688 421.166 396.949C396.536 433.433 370.738 471.088 355.928 509.311C342.426 544.17 338.924 579.87 333.652 615.331" stroke="#E7F7EB" stroke-opacity="0.5" stroke-width="3" stroke-miterlimit="10"/>
<path d="M278.414 1.02344C287.167 53.8857 352.425 71.4231 419.152 101.065C482.901 129.377 498.174 163.315 485.698 207.858C467.548 272.688 418.287 334.837 378.545 396.075C331.941 467.873 289.723 538.705 278.474 615.344" stroke="#E7F7EB" stroke-opacity="0.5" stroke-width="3" stroke-miterlimit="10"/>
<path d="M223.213 1.02344C231 54.4767 297.184 71.3208 364.857 100.622C429.994 128.82 443.195 162.588 431.141 207.358C393.431 347.464 235.649 472.578 223.213 615.344" stroke="#E7F7EB" stroke-opacity="0.5" stroke-width="3" stroke-miterlimit="10"/>
<path d="M168.083 1C178.124 51.5209 234.85 74.6617 293.689 108.373C349.61 140.413 364.44 174.044 353.554 218.223C320.009 354.328 184.04 477.124 168.062 615.321" stroke="#E7F7EB" stroke-opacity="0.5" stroke-width="3" stroke-miterlimit="10"/>
<path d="M112.885 1.01074C119.042 50.4065 161.26 83.9242 204.081 125.068C243.32 162.791 255.313 199.56 247.285 243C223.962 369.41 122.604 487.66 112.885 615.343" stroke="#E7F7EB" stroke-opacity="0.5" stroke-width="3" stroke-miterlimit="10"/>
<path d="M57.6641 1.03418C58.5495 51.7028 84.3267 96.5977 108.313 144.766C129.381 187.081 136.002 228.566 131.434 272.426C119.461 387.55 58.9117 499.765 57.6641 615.355" stroke="#E7F7EB" stroke-opacity="0.5" stroke-width="3" stroke-miterlimit="10"/>
<path d="M2.46695 1.04492C-2.0808 100.007 28.1637 198.048 25.0849 297.237C21.7848 403.314 -1.05454 509.255 2.46695 615.366" stroke="#E7F7EB" stroke-opacity="0.5" stroke-width="3" stroke-miterlimit="10"/>
</svg>
