<svg width="1987" height="652" viewBox="0 0 1987 652" fill="none" xmlns="http://www.w3.org/2000/svg">
<path d="M1984.58 1.30957C1982.82 217.404 1973.34 434.732 1984.43 650.718" stroke="#F6F1FA" stroke-width="4" stroke-miterlimit="10"/>
<path d="M1916.28 1.30957C1912.97 63.4007 1910.26 119.76 1923.16 181.361C1932.79 227.308 1928.28 274.834 1924.07 320.853C1919.59 369.866 1914.66 418.153 1918.27 467.238C1920.34 495.354 1930.2 523.579 1928.5 551.641C1926.51 584.945 1914.81 617.269 1916.09 650.7" stroke="#F6F1FA" stroke-width="4" stroke-miterlimit="10"/>
<path d="M1847.94 1.30957C1843.87 33.7247 1828.87 65.7226 1826.57 98.1377C1824.39 129.356 1850.15 154.243 1861.48 183.683C1878.1 226.927 1871.22 274.67 1866.25 318.296C1860.72 367.09 1854.33 414.307 1861.06 463.211C1864.94 491.182 1878.55 519.534 1874.08 547.505C1868.47 582.514 1848.54 615.364 1847.67 650.736" stroke="#F6F1FA" stroke-width="4" stroke-miterlimit="10"/>
<path d="M1779.6 1.30957C1772.57 34.3051 1750.9 66.4663 1746.5 99.4981C1741.8 134.761 1783.36 155.875 1801.57 186.912C1825 226.837 1817.03 274.87 1811.95 315.683C1805.93 364.061 1798.45 409.7 1809.05 458.15C1815.22 486.23 1831.77 514.165 1823.72 542.408C1813.15 579.503 1784.04 612.934 1779.45 650.7" stroke="#F6F1FA" stroke-width="4" stroke-miterlimit="10"/>
<path d="M1711.25 1.30957C1700.84 34.9581 1672.29 67.2825 1665.48 101.058C1657.28 141.727 1716.63 157.998 1743.04 190.757C1772.49 227.345 1765.12 274.833 1760.23 313.035C1754.1 360.941 1745.71 404.566 1760.87 452.4C1769.93 481.078 1788.59 507.544 1776.32 536.676C1759.74 576.111 1720.96 610.176 1711.25 650.663" stroke="#F6F1FA" stroke-width="4" stroke-miterlimit="10"/>
<path d="M1642.87 1.32812C1628.95 35.6478 1593.56 68.1355 1584.35 102.709C1571.93 149.346 1649.94 160.846 1685.56 194.894C1720.58 228.397 1714.86 274.235 1710.31 310.351C1704.29 357.803 1695 399.161 1715.2 446.305C1727.91 475.981 1747.92 500.052 1730.85 530.654C1707.49 572.537 1658.82 607.347 1642.98 650.664" stroke="#F6F1FA" stroke-width="4" stroke-miterlimit="10"/>
<path d="M1574.53 1.32812C1557.34 36.319 1515.36 68.9518 1504 104.342C1487.19 156.783 1583.25 164.619 1628.88 198.921C1669.5 229.467 1665.7 273.02 1661.45 307.557C1655.66 354.683 1645.2 393.683 1670.89 440.102C1687.97 470.921 1708.69 492.144 1686.39 524.541C1655.85 568.873 1597.4 604.481 1574.71 650.609" stroke="#F6F1FA" stroke-width="4" stroke-miterlimit="10"/>
<path d="M1506.19 1.32812C1486.29 36.9539 1438.22 69.7136 1425.24 105.884C1404.63 163.313 1516.57 169.444 1572.65 202.567C1619.21 230.066 1616.92 271.297 1612.93 304.728C1607.33 351.709 1595.37 388.423 1626.77 434.188C1648.67 466.077 1669.73 484.507 1642.01 518.718C1604.21 565.409 1536.24 601.796 1506.45 650.609" stroke="#F6F1FA" stroke-width="4" stroke-miterlimit="10"/>
<path d="M1437.89 1.32812C1416.07 37.4981 1362.78 70.4029 1348.97 107.262C1325.99 168.573 1450.38 175.031 1516.61 205.469C1569.31 229.703 1567.88 269.138 1563.97 301.789C1558.32 348.879 1544.48 383.579 1581.61 428.819C1608.42 461.506 1629.68 477.56 1596.8 513.403C1552.01 562.27 1474.97 599.311 1438.3 650.555" stroke="#F6F1FA" stroke-width="4" stroke-miterlimit="10"/>
<path d="M1369.58 1.32812C1347.05 37.9334 1289.5 71.0015 1275.92 108.387C1264.37 138.861 1289.54 163.766 1351.49 183.067C1385.11 194.422 1421.37 202.512 1460.3 207.337C1516.42 230.991 1518.03 264.259 1513.63 298.814C1507.58 346.321 1491.4 379.407 1533.94 424.393C1565.35 457.606 1587.09 471.773 1549.55 508.995C1498.36 559.749 1412.98 597.225 1369.95 650.591" stroke="#F6F1FA" stroke-width="4" stroke-miterlimit="10"/>
<path d="M1301.35 1.32812C1279.57 38.2599 1219.13 71.4913 1207.09 109.167C1198.06 140.457 1224.81 165.961 1287.39 185.697C1322.68 198.975 1361.42 206.34 1403.66 207.791C1464.59 229.304 1466.51 260.359 1461.43 295.712C1454.47 343.963 1435.44 376.015 1482.91 421.128C1518.15 454.613 1541.09 467.384 1499.64 505.658C1443.04 557.935 1350.17 595.484 1301.73 650.573" stroke="#F6F1FA" stroke-width="4" stroke-miterlimit="10"/>
<path d="M1233.04 1.32812C1212.36 37.9516 1153.61 71.836 1143.71 109.294C1126.3 175.122 1259 185.933 1343.97 207.99C1409.94 225.114 1410.65 262.372 1406.78 295.132C1401.14 343.002 1382.78 374.873 1429.99 419.55C1465.94 453.58 1485.84 466.059 1441.5 504.442C1380.68 557.083 1285.48 594.849 1233.5 650.573" stroke="#F6F1FA" stroke-width="4" stroke-miterlimit="10"/>
<path d="M1164.7 1.34668C1145.86 36.9362 1094.55 71.7094 1087.82 108.315C1076.2 171.549 1199.98 181.943 1281.07 207.193C1344.68 227.001 1350.73 262.881 1349.19 296.964C1347.08 343.293 1333.13 376.143 1374.35 419.877C1407.3 454.85 1419.79 468.219 1373.94 505.64C1310.64 557.319 1218.41 595.394 1165.26 650.538" stroke="#F6F1FA" stroke-width="4" stroke-miterlimit="10"/>
<path d="M1096.4 1.34668C1081.24 35.8297 1039.64 71.1108 1037.8 106.537C1034.71 165.853 1142.33 175.684 1217.29 204.236C1277.73 227.255 1287.4 263.479 1287.59 298.797C1287.89 344.036 1277.58 378.9 1311.62 422.38C1339.57 458.061 1346.71 472.699 1300.75 508.851C1237.03 558.934 1149.13 596.573 1097.04 650.538" stroke="#F6F1FA" stroke-width="4" stroke-miterlimit="10"/>
<path d="M1028.13 1.32812C1017.71 34.7953 987.507 70.0946 991.607 104.197C998.076 158.089 1086.58 168.682 1152.59 199.918C1209.01 226.601 1220.25 264.621 1221.38 301.245C1222.77 345.94 1214.88 383.652 1240.57 427.459C1261.63 463.338 1265.54 479.682 1220.86 514.274C1159.1 562.089 1077.25 598.422 1028.69 650.483" stroke="#F6F1FA" stroke-width="4" stroke-miterlimit="10"/>
<path d="M959.9 1.32812C954.635 34.0516 936.806 68.7886 947.262 101.603C962.27 148.602 1032.64 162.551 1087.03 195.111C1138.37 225.858 1149.13 266.762 1150.03 305C1151.09 349.895 1143.86 390.981 1160.11 435.658C1172.94 470.885 1175.27 489.623 1133.41 522.31C1076.12 567.06 1002.48 601.18 960.314 650.501" stroke="#F6F1FA" stroke-width="4" stroke-miterlimit="10"/>
<path d="M891.63 1.30957C891.404 33.6884 885.951 67.2463 902.763 98.972C923.676 138.443 979.456 158.27 1020.53 190.576C1065.48 225.912 1073.56 270.208 1072.85 310.659C1072.06 356.642 1063.26 401.265 1068.9 447.393C1073 480.697 1074.28 502.973 1037.3 533.193C987.317 574.079 924.391 604.88 891.781 650.555" stroke="#F6F1FA" stroke-width="4" stroke-miterlimit="10"/>
<path d="M823.363 1.30957C827.614 33.8154 833.519 65.65 856.162 96.6139C880.497 129.936 924.354 155.767 954.406 186.984C992.959 227.036 999.316 273.999 997.247 317.443C994.953 365.077 984.309 412.747 980.472 460.436C977.99 491.654 976.598 517.049 943.461 545.038C899.905 581.806 847.36 609.016 823.363 650.627" stroke="#F6F1FA" stroke-width="4" stroke-miterlimit="10"/>
<path d="M755.055 1.30957C770.514 69.2053 842.317 121.846 889.371 184.608C922.244 228.451 929.503 276.502 927.322 322.74C925.027 371.516 913.518 420.783 902.347 469.27C895.389 499.417 889.559 526.427 857.851 553.328C818.057 587.085 773.636 612.045 755.018 650.645" stroke="#F6F1FA" stroke-width="4" stroke-miterlimit="10"/>
<path d="M686.727 1.30957C703.766 67.2463 787.906 121.247 824.465 184.681C851.584 231.753 858.768 281.182 856.06 329.832C853.277 379.897 840.15 430.034 821.381 479.246C810.36 508.197 799.904 536.277 769.964 562.289C734.646 592.944 699.252 615.401 686.689 650.7" stroke="#F6F1FA" stroke-width="4" stroke-miterlimit="10"/>
<path d="M618.404 1.32812C636.421 67.4643 723.156 121.556 756.067 185.951C781.117 235 789.806 285.627 788.715 336.036C787.624 387.262 776.491 438.379 758.098 488.806C747.379 518.174 736.847 544.567 703.522 570.198C667.602 597.824 633.412 618.321 618.442 650.755" stroke="#F6F1FA" stroke-width="4" stroke-miterlimit="10"/>
<path d="M550.094 1.32812C568.411 67.0834 650.257 121.882 679.82 186.35C702.839 236.596 711.114 288.13 710.625 339.501C710.099 391.579 700.545 443.584 684.447 495.064C675.269 524.45 666.882 549.809 633.068 575.222C598.765 600.998 565.966 620.607 550.169 650.809" stroke="#F6F1FA" stroke-width="4" stroke-miterlimit="10"/>
<path d="M481.809 1.32812C498.584 66.3941 572.869 122.227 599.01 186.259C619.81 237.158 627.483 289.073 627.37 340.898C627.22 393.32 619.02 445.707 605.066 497.676C597.205 526.917 590.021 551.641 558.463 577.326C527.508 602.522 496.816 621.949 481.884 650.845" stroke="#F6F1FA" stroke-width="4" stroke-miterlimit="10"/>
<path d="M413.5 1.32812C427.417 65.5234 492.073 122.481 514.829 185.788C533.222 236.904 540.18 288.801 540.293 340.625C540.368 392.976 533.41 445.308 521.374 497.332C514.641 526.5 506.893 550.498 480.714 577.09C455.401 602.794 426.476 622.53 413.575 650.881" stroke="#F6F1FA" stroke-width="4" stroke-miterlimit="10"/>
<path d="M345.158 1.32812C355.464 64.5439 409.062 122.59 428.508 185.044C444.381 236.016 450.474 287.568 450.662 339.065C450.85 391.035 444.983 442.986 434.79 494.701C423.581 551.659 364.83 595.901 345.196 650.845" stroke="#F6F1FA" stroke-width="4" stroke-miterlimit="10"/>
<path d="M276.816 1.32812C283.361 63.5825 325.149 122.499 341.322 184.137C354.6 234.71 359.753 285.718 359.941 336.671C360.129 388.024 355.277 439.358 346.814 490.548C337.561 546.653 290.47 595.774 276.892 650.827" stroke="#F6F1FA" stroke-width="4" stroke-miterlimit="10"/>
<path d="M208.473 1.32812C211.482 62.6755 241.534 122.263 254.436 183.175C265.042 233.222 269.18 283.523 269.33 333.823C269.481 384.432 265.569 435.041 258.799 485.541C251.276 541.755 216.447 594.994 208.51 650.791" stroke="#F6F1FA" stroke-width="4" stroke-miterlimit="10"/>
<path d="M140.127 1.32812C140.541 111.307 180.072 220.524 180.222 330.921C180.297 380.768 177.288 430.597 172.173 480.389C166.305 537.474 143.362 593.779 140.127 650.773" stroke="#F6F1FA" stroke-width="4" stroke-miterlimit="10"/>
<path d="M71.8231 1.32812C69.115 110.328 94.0146 219.255 94.0146 328.381C94.0146 435.966 71.7479 543.369 71.8607 650.736" stroke="#F6F1FA" stroke-width="4" stroke-miterlimit="10"/>
<path d="M3.51707 1.32812C0.395203 109.729 12.0176 218.185 11.9424 326.604C11.8671 434.624 1.10985 542.717 3.51707 650.7" stroke="#F6F1FA" stroke-width="4" stroke-miterlimit="10"/>
</svg>
