<svg width="50" height="50" viewBox="0 0 50 50" fill="none" xmlns="http://www.w3.org/2000/svg">
<rect x="13" y="10" width="8" height="1" rx="0.5" fill="#C7017F"/>
<rect x="15" y="12" width="8" height="1" rx="0.5" fill="#C7017F"/>
<rect x="17" y="18" width="6" height="1" rx="0.5" fill="#C7017F"/>
<rect x="17" y="16" width="6" height="1" rx="0.5" fill="#C7017F"/>
<rect x="15" y="14" width="6" height="1" rx="0.5" fill="#C7017F"/>
<rect x="15" y="22" width="6" height="1" rx="0.5" fill="#C7017F"/>
<rect x="15" y="24" width="7" height="1" rx="0.5" fill="#C7017F"/>
<rect x="17" y="20" width="5" height="1" rx="0.5" fill="#C7017F"/>
<rect x="13" y="26" width="6" height="1" rx="0.5" fill="#C7017F"/>
<path fill-rule="evenodd" clip-rule="evenodd" d="M39.2424 6.13159H10.1003C8.38588 6.13159 6.99609 7.52137 6.99609 9.23576V28.2581C6.99609 29.9725 8.38588 31.3622 10.1003 31.3622H25.2718C25.4099 31.3622 25.5218 31.2503 25.5218 31.1122C25.5218 30.9742 25.4099 30.8622 25.2718 30.8622H10.1003C8.66202 30.8622 7.49609 29.6963 7.49609 28.2581V9.23576C7.49609 7.79752 8.66202 6.63159 10.1003 6.63159H39.2424C40.6806 6.63159 41.8466 7.79752 41.8466 9.23576V10.2107C41.8466 10.33 41.9412 10.428 42.0591 10.4458C42.2066 10.468 42.3466 10.3593 42.3466 10.2101V9.23576C42.3466 7.52137 40.9568 6.13159 39.2424 6.13159Z" fill="#C7017F"/>
<path d="M27.0833 14.0624C27.0833 12.9118 28.0161 11.9791 29.1667 11.9791H41.6667C42.8173 11.9791 43.75 12.9118 43.75 14.0624V41.6666C43.75 42.8172 42.8173 43.7499 41.6667 43.7499H29.1667C28.0161 43.7499 27.0833 42.8172 27.0833 41.6666V14.0624Z" stroke="#C7017F" stroke-width="1.04167"/>
<path d="M28.8945 23.9583C28.8945 22.9458 29.7153 22.125 30.7279 22.125H40.1029C41.1154 22.125 41.9362 22.9458 41.9362 23.9583V31.7708C41.9362 32.7834 41.1154 33.6042 40.1029 33.6042H30.7279C29.7153 33.6042 28.8945 32.7834 28.8945 31.7708V23.9583Z" stroke="#C7017F" stroke-width="0.5"/>
<path d="M28.8945 36.4583C28.8945 35.7334 29.4822 35.1458 30.207 35.1458H40.6237C41.3486 35.1458 41.9362 35.7334 41.9362 36.4583V40.1041C41.9362 40.829 41.3486 41.4166 40.6237 41.4166H30.207C29.4822 41.4166 28.8945 40.829 28.8945 40.1041V36.4583Z" stroke="#C7017F" stroke-width="0.5"/>
<circle cx="29.5739" cy="19.1586" r="0.520833" fill="#C7017F" stroke="#C7017F" stroke-width="0.817123"/>
<circle cx="41.0349" cy="19.1586" r="0.520833" fill="#C7017F" stroke="#C7017F" stroke-width="0.817123"/>
<circle cx="37.3864" cy="19.1586" r="0.520833" fill="#C7017F" stroke="#C7017F" stroke-width="0.817123"/>
<circle cx="33.2224" cy="19.1586" r="0.520833" fill="#C7017F" stroke="#C7017F" stroke-width="0.817123"/>
<path d="M38.543 13.5417L32.293 13.5417" stroke="#C7017F" stroke-width="0.520833" stroke-linecap="round"/>
<path fill-rule="evenodd" clip-rule="evenodd" d="M31.2227 13.5417C31.2227 13.3978 31.3392 13.2812 31.4831 13.2812C31.6269 13.2812 31.743 13.3978 31.743 13.5417C31.743 13.6855 31.6264 13.8021 31.4826 13.8021C31.3388 13.8021 31.2227 13.6855 31.2227 13.5417ZM39.0926 13.5417C39.0926 13.3978 39.2092 13.2812 39.353 13.2812C39.4968 13.2812 39.6134 13.3978 39.6134 13.5417C39.6134 13.6855 39.4968 13.8021 39.353 13.8021C39.2092 13.8021 39.0926 13.6855 39.0926 13.5417Z" fill="#C7017F"/>
<path d="M30.7305 37.5H40.1055" stroke="#C7017F" stroke-width="0.520833" stroke-linecap="round"/>
<path d="M30.7305 39.0625H40.1055" stroke="#C7017F" stroke-width="0.520833" stroke-linecap="round"/>
<path d="M33.6622 25.7812C33.8627 25.434 34.3639 25.434 34.5643 25.7812L37.0451 30.0781C37.2456 30.4253 36.995 30.8594 36.5941 30.8594H31.6325C31.2315 30.8594 30.981 30.4253 31.1814 30.0781L33.6622 25.7812Z" fill="#C7017F"/>
<path fill-rule="evenodd" clip-rule="evenodd" d="M37.415 29.8175H38.8164C39.2173 29.8175 39.4679 29.3835 39.2674 29.0363L37.6887 26.3019C37.4883 25.9547 36.9871 25.9547 36.7866 26.3019L36.0859 27.5155L37.415 29.8175Z" fill="#C7017F"/>
</svg>
