<svg width="50" height="50" viewBox="0 0 50 50" fill="none" xmlns="http://www.w3.org/2000/svg">
<path fill-rule="evenodd" clip-rule="evenodd" d="M10 6C10 5.44772 10.4477 5 11 5H15C15.5523 5 16 5.44772 16 6C16 6.55228 15.5523 7 15 7H11C10.4477 7 10 6.55228 10 6ZM6 9C5.44772 9 5 9.44772 5 10C5 10.5523 5.44772 11 6 11C6.55228 11 7 10.5523 7 10C7 9.44772 6.55228 9 6 9ZM3 17C2.44772 17 2 17.4477 2 18C2 18.5523 2.44772 19 3 19H6C6.55228 19 7 18.5523 7 18C7 17.4477 6.55228 17 6 17H3ZM2 22C2 21.4477 2.44772 21 3 21H6C6.55228 21 7 21.4477 7 22C7 22.5523 6.55228 23 6 23H3C2.44772 23 2 22.5523 2 22ZM3 25C2.44772 25 2 25.4477 2 26C2 26.5523 2.44772 27 3 27H6C6.55228 27 7 26.5523 7 26C7 25.4477 6.55228 25 6 25H3ZM2 30.0417C2 29.4664 2.46637 29 3.04167 29H6.16666C6.74196 29 7.20833 29.4664 7.20833 30.0417C7.20833 30.617 6.74196 31.0833 6.16667 31.0833H3.04167C2.46637 31.0833 2 30.617 2 30.0417ZM3 33C2.44772 33 2 33.4477 2 34C2 34.5523 2.44772 35 3 35H6C6.55228 35 7 34.5523 7 34C7 33.4477 6.55228 33 6 33H3ZM11 17C10.4477 17 10 17.4477 10 18C10 18.5523 10.4477 19 11 19H14C14.5523 19 15 18.5523 15 18C15 17.4477 14.5523 17 14 17H11ZM10 22C10 21.4477 10.4477 21 11 21H14C14.1261 21 14.2468 21.0233 14.3579 21.066C13.3806 21.5308 12.5151 22.1926 11.8126 23H11C10.4477 23 10 22.5523 10 22ZM10.2023 25.9544C9.98212 26.1742 9.84591 26.4781 9.84591 26.8138C9.84591 26.9814 9.87986 27.141 9.94126 27.2863C9.99004 26.8294 10.0782 26.3842 10.2023 25.9544ZM10.1022 29.9129C9.94161 30.1188 9.84591 30.3778 9.84591 30.6592C9.84591 31.2555 10.2757 31.7514 10.8424 31.8541C10.5141 31.2507 10.2629 30.5992 10.1022 29.9129ZM11.6039 33H11C10.4477 33 10 33.4477 10 34C10 34.5523 10.4477 35 11 35H13.9951C13.0695 34.4989 12.2565 33.8163 11.6039 33ZM19.5516 35.7192H21.9679C22.6386 35.7192 23.1823 35.1755 23.1823 34.5048C23.1823 34.2722 23.1169 34.0549 23.0035 33.8703C22.044 34.7549 20.8623 35.4023 19.5516 35.7192ZM23.0564 22.4293C22.9047 22.1233 22.6278 21.8905 22.2926 21.7977C22.5606 21.9921 22.8157 22.2032 23.0564 22.4293ZM18 6C18 5.44772 18.4477 5 19 5H23C23.5523 5 24 5.44772 24 6C24 6.55228 23.5523 7 23 7H19C18.4477 7 18 6.55228 18 6ZM19 17C18.4477 17 18 17.4477 18 18C18 18.5523 18.4477 19 19 19H22C22.5523 19 23 18.5523 23 18C23 17.4477 22.5523 17 22 17H19ZM3 13C2.44772 13 2 13.4477 2 14C2 14.5523 2.44772 15 3 15H6C6.55228 15 7 14.5523 7 14C7 13.4477 6.55228 13 6 13H3ZM10 14C10 13.4477 10.4477 13 11 13H14C14.5523 13 15 13.4477 15 14C15 14.5523 14.5523 15 14 15H11C10.4477 15 10 14.5523 10 14ZM19 13C18.4477 13 18 13.4477 18 14C18 14.5523 18.4477 15 19 15H22C22.5523 15 23 14.5523 23 14C23 13.4477 22.5523 13 22 13H19ZM10 10C10 9.44772 10.4477 9 11 9H14C14.5523 9 15 9.44772 15 10C15 10.5523 14.5523 11 14 11H11C10.4477 11 10 10.5523 10 10ZM19 9C18.4477 9 18 9.44772 18 10C18 10.5523 18.4477 11 19 11H22C22.5523 11 23 10.5523 23 10C23 9.44772 22.5523 9 22 9H19Z" fill="#C7017F"/>
<path d="M25.8407 28.1252C25.8407 32.6158 22.2003 36.2562 17.7096 36.2562C13.219 36.2562 9.57856 32.6158 9.57856 28.1252C9.57856 23.6345 13.219 19.9941 17.7096 19.9941C22.2003 19.9941 25.8407 23.6345 25.8407 28.1252Z" stroke="#C7017F" stroke-width="1.44618"/>
<path d="M19.2143 22.476C20.6335 22.8488 21.8601 23.671 22.6807 24.7927C23.501 25.9139 23.8641 27.2632 23.7102 28.6033" stroke="#C7017F" stroke-width="0.510417" stroke-linecap="round"/>
<path d="M23.5435 29.502C23.5389 29.5217 23.5342 29.5413 23.5293 29.561" stroke="#C7017F" stroke-width="0.510417" stroke-linecap="round"/>
<path d="M11.209 34.0249L12.6801 35.3295L7.33763 41.2603C6.97423 41.6638 6.35031 41.6988 5.94407 41.3385V41.3385C5.53783 40.9783 5.5031 40.3592 5.8665 39.9558L11.209 34.0249Z" fill="#C7017F"/>
<rect x="27.25" y="14.2502" width="5.5" height="3.5" rx="0.75" stroke="#C7017F" stroke-width="0.5" stroke-linecap="round" stroke-linejoin="round"/>
<path d="M36 14.2502H40C40.4142 14.2502 40.75 14.586 40.75 15.0002V17.0002C40.75 17.4145 40.4142 17.7502 40 17.7502H36C35.5858 17.7502 35.25 17.4145 35.25 17.0002V15.0002C35.25 14.586 35.5858 14.2502 36 14.2502Z" stroke="#C7017F" stroke-width="0.5" stroke-linecap="round" stroke-linejoin="round"/>
<rect x="35.25" y="22.2502" width="5.5" height="3.5" rx="0.75" stroke="#C7017F" stroke-width="0.5" stroke-linecap="round" stroke-linejoin="round"/>
<path d="M43 22.2502H47C47.4142 22.2502 47.75 22.586 47.75 23.0002V25.0002C47.75 25.4145 47.4142 25.7502 47 25.7502H43C42.5858 25.7502 42.25 25.4145 42.25 25.0002V23.0002C42.25 22.586 42.5858 22.2502 43 22.2502Z" stroke="#C7017F" stroke-width="0.5" stroke-linecap="round" stroke-linejoin="round"/>
<path d="M36 29.2502H40C40.4142 29.2502 40.75 29.586 40.75 30.0002V32.0002C40.75 32.4145 40.4142 32.7502 40 32.7502H36C35.5858 32.7502 35.25 32.4145 35.25 32.0002V30.0002C35.25 29.586 35.5858 29.2502 36 29.2502Z" stroke="#C7017F" stroke-width="0.5" stroke-linecap="round" stroke-linejoin="round"/>
<ellipse cx="30" cy="24.0002" rx="1" ry="1" fill="#C7017F"/>
<path d="M35 16.0002H33" stroke="#C7017F" stroke-width="0.5"/>
<path d="M41 24.0002L42 24.0003" stroke="#C7017F" stroke-width="0.5"/>
<path d="M30 24.0002L35 24.0002" stroke="#C7017F" stroke-width="0.5"/>
<path d="M40.9985 31.0002C44.9991 31.0002 44.9991 31.0002 44.9991 26.0002" stroke="#C7017F" stroke-width="0.5"/>
<path d="M41.0003 16.0003C45 16.0002 45 16.0003 45 22.0003" stroke="#C7017F" stroke-width="0.5"/>
<path d="M30 24.0002L30 18.0002" stroke="#C7017F" stroke-width="0.5"/>
</svg>
