<svg width="50" height="50" viewBox="0 0 50 50" fill="none" xmlns="http://www.w3.org/2000/svg">
<path d="M22.4453 9.69385H25.0603V12.3088H22.4453V9.69385Z" fill="#C7017F"/>
<rect x="22.4453" y="9.69385" width="2.61497" height="2.61497" fill="#C7017F"/>
<path d="M11.2227 11.7346H13.8376V14.3496H11.2227V11.7346Z" fill="#C7017F"/>
<rect x="11.2227" y="11.7346" width="2.61497" height="2.61497" fill="#C7017F"/>
<path d="M13.7734 12.7551H16.3884V15.3701H13.7734V12.7551Z" fill="#C7017F"/>
<rect x="13.7734" y="12.7551" width="2.61497" height="2.61497" fill="#C7017F"/>
<path d="M12.2422 14.2856H14.8572V16.9006H12.2422V14.2856Z" fill="#C7017F"/>
<rect x="12.2422" y="14.2856" width="2.61497" height="2.61497" fill="#C7017F"/>
<path d="M14.2852 20.9185H16.9001V23.5334H14.2852V20.9185Z" fill="#C7017F"/>
<rect x="14.2852" y="20.9185" width="2.61497" height="2.61497" fill="#C7017F"/>
<path d="M9.69141 23.4692H12.3064V26.0842H9.69141V23.4692Z" fill="#C7017F"/>
<rect x="9.69141" y="23.4692" width="2.61497" height="2.61497" fill="#C7017F"/>
<path d="M14.2852 26.5305H16.9001V29.1455H14.2852V26.5305Z" fill="#C7017F"/>
<rect x="14.2852" y="26.5305" width="2.61497" height="2.61497" fill="#C7017F"/>
<path d="M29.5898 10.2041H32.2048V12.8191H29.5898V10.2041Z" fill="#C7017F"/>
<rect x="29.5898" y="10.2041" width="2.61497" height="2.61497" fill="#C7017F"/>
<rect x="35.7109" y="11.2244" width="2.61497" height="2.61497" fill="#C7017F"/>
<path d="M18.0465 13.5617C18.291 15.816 16.5666 17.8732 14.1655 18.1337C11.7645 18.3941 9.63899 16.7546 9.39443 14.5004C9.14986 12.2462 10.8743 10.189 13.2754 9.92851C15.6764 9.66802 17.8019 11.3075 18.0465 13.5617Z" stroke="#C7017F" stroke-width="0.5"/>
<rect x="23.5" y="16.5" width="17" height="26" rx="1.5" stroke="#C7017F"/>
<path d="M23.25 18C23.25 17.0335 24.0335 16.25 25 16.25H39C39.9665 16.25 40.75 17.0335 40.75 18V18.75H23.25V18Z" stroke="#C7017F" stroke-width="0.5"/>
<path fill-rule="evenodd" clip-rule="evenodd" d="M39.9344 7.05933H10.0373C8.35232 7.05933 6.98633 8.42532 6.98633 10.1103V28.9437C6.98633 30.6288 8.35232 31.9948 10.0374 31.9948H21.7436C21.8817 31.9948 21.9936 31.8828 21.9936 31.7448C21.9936 31.6067 21.8817 31.4948 21.7436 31.4948H10.0374C8.62846 31.4948 7.48633 30.3526 7.48633 28.9437V10.1103C7.48633 8.70146 8.62846 7.55933 10.0373 7.55933H39.9344C41.3433 7.55933 42.4855 8.70146 42.4855 10.1103V28.9437C42.4855 28.9936 42.484 29.0431 42.4812 29.0922C42.4812 29.549 42.939 29.6466 42.9756 29.1913C42.9821 29.1096 42.9855 29.0271 42.9855 28.9437V10.1103C42.9855 8.42531 41.6195 7.05933 39.9344 7.05933Z" fill="#C7017F"/>
<path d="M28.0614 43.8774L27.041 48.7244M36.2247 43.8774L37.5002 48.7244M32.1431 43.8774V47.1938" stroke="#C7017F" stroke-linecap="round"/>
<path d="M27 23H30M27 25H29M34 23H36M34 25H37M27 27H30M27 29H30M27 31H29M27 33H30M34 27H36M34 29H37" stroke="#C7017F" stroke-linecap="round"/>
</svg>
