<svg id="LOGO" xmlns="http://www.w3.org/2000/svg" viewBox="0 0 765.03 284.06"><defs><style>.cls-1{fill:none;}.cls-2{fill:#fff;}</style></defs><title>PocketRevolutions_NEG</title><rect class="cls-1" y="6.61" width="765.03" height="271.21"/><path class="cls-2" d="M99.81,229.79,87.61,212a13.09,13.09,0,0,0,12-13V175.44H47.92v9.38H90.18V199a3.69,3.69,0,0,1-3.69,3.69H47.92v27.13H57.3V212h19l12.16,17.75Z"/><rect class="cls-2" x="113.89" y="220.39" width="47.92" height="9.38"/><rect class="cls-2" x="113.91" y="175.46" width="47.92" height="9.38"/><rect class="cls-2" x="113.89" y="197.95" width="47.92" height="9.38"/><polygon class="cls-2" points="218.97 175.44 201.34 221.28 183.7 175.44 173.64 175.44 194.55 229.79 208.12 229.79 229.03 175.44 218.97 175.44"/><path class="cls-2" d="M283.13,229.72H253.3a14.59,14.59,0,0,1-14.57-14.57V190a14.59,14.59,0,0,1,14.57-14.57h29.83A14.59,14.59,0,0,1,297.7,190v25.13A14.58,14.58,0,0,1,283.13,229.72ZM253.3,184.83a5.2,5.2,0,0,0-5.19,5.19v25.13a5.2,5.2,0,0,0,5.19,5.19h29.83a5.2,5.2,0,0,0,5.19-5.19V190a5.2,5.2,0,0,0-5.19-5.19Z"/><path class="cls-2" d="M567,229.79H537.2a14.58,14.58,0,0,1-14.57-14.57V190a14.59,14.59,0,0,1,14.57-14.57H567A14.59,14.59,0,0,1,581.6,190v25.2A14.59,14.59,0,0,1,567,229.79Zm-29.83-45A5.2,5.2,0,0,0,532,190v25.2a5.2,5.2,0,0,0,5.19,5.19H567a5.2,5.2,0,0,0,5.19-5.19V190a5.2,5.2,0,0,0-5.19-5.19Z"/><path class="cls-2" d="M407.68,229.81H384.5a14.59,14.59,0,0,1-14.57-14.57V175.45h9.38v39.79a5.2,5.2,0,0,0,5.19,5.19h23.18a5.2,5.2,0,0,0,5.19-5.19V175.45h9.38v39.79A14.59,14.59,0,0,1,407.68,229.81Z"/><polygon class="cls-2" points="358.38 229.78 314.25 229.78 314.25 175.45 323.63 175.45 323.63 220.39 358.38 220.39 358.38 229.78"/><polygon class="cls-2" points="485.76 175.42 465.48 175.42 456.1 175.42 435.82 175.42 435.82 184.8 456.1 184.8 456.1 229.79 465.48 229.79 465.48 184.8 485.76 184.8 485.76 175.42"/><rect class="cls-2" x="499.16" y="175.43" width="9.38" height="54.35"/><polygon class="cls-2" points="639.28 175.43 639.28 218.82 610.11 175.44 605.48 175.44 605.48 175.43 596.1 175.43 596.1 229.79 605.48 229.79 605.48 185.37 635.35 229.79 639.28 229.79 639.28 229.79 648.67 229.79 648.67 175.43 639.28 175.43"/><path class="cls-2" d="M702.54,229.79H661.46V220.4h41.08c3.54,0,5.19-3.79,5.19-6.36v-.51c0-3.14-2.57-6.22-5.19-6.22l-27.82.07c-7.78,0-14.59-7.29-14.59-15.6v-.52c0-7.57,5.57-15.74,14.57-15.74h41.08v9.38H674.7c-3.54,0-5.19,3.8-5.19,6.36v.52c0,3.14,2.58,6.22,5.19,6.22l27.82-.08c7.78,0,14.59,7.3,14.59,15.61V214C717.11,221.61,711.54,229.79,702.54,229.79Z"/><path class="cls-2" d="M378.94,154.3H311.66a23.12,23.12,0,0,1-23.1-23.09V54.53h90.38V69.71h-75.2v61.5a7.92,7.92,0,0,0,7.92,7.91h67.28Z"/><path class="cls-2" d="M63.1,154.3H47.92v-50h67.86A7.34,7.34,0,0,0,123.11,97V69.71H47.92V54.53h90.37V97a22.54,22.54,0,0,1-22.51,22.51H63.1Z"/><rect class="cls-2" x="517.43" y="139.12" width="87.8" height="15.18"/><rect class="cls-2" x="517.43" y="54.53" width="87.8" height="15.18"/><rect class="cls-2" x="517.43" y="96.82" width="87.8" height="15.18"/><rect class="cls-2" x="402.39" y="54.52" width="15.17" height="99.79"/><polygon class="cls-2" points="492.61 157.25 492.61 138.37 446.75 104.45 492.61 70.97 492.61 52.17 421.11 104.37 492.61 157.25"/><polygon class="cls-2" points="717.12 54.53 627.16 54.53 627.16 69.73 664.55 69.73 664.55 154.3 679.73 154.3 679.73 69.73 717.12 69.73 717.12 54.53"/><path class="cls-2" d="M164.63,54.53v77.2A22.6,22.6,0,0,0,187.2,154.3h45.23A22.6,22.6,0,0,0,255,131.73V54.53Zm75.2,26.55A63.79,63.79,0,0,1,219,84.49c-16.09,0-30.78-5.62-39.08-14.8h59.9Zm-60-11.39-.05.1v-.1Zm52.57,69.43H187.2a7.4,7.4,0,0,1-7.39-7.39V88.86l.07.21c10.78,6.72,24.59,10.6,39.13,10.6A80.11,80.11,0,0,0,239.83,97v34.78A7.4,7.4,0,0,1,232.43,139.12Z"/></svg>