<svg width="50" height="50" viewBox="0 0 50 50" fill="none" xmlns="http://www.w3.org/2000/svg">
<path d="M5 8H11V14H5V8Z" fill="white"/>
<path d="M11 14H17V20H11V14Z" fill="#C7017F"/>
<path d="M5 20H11V26H5V20Z" fill="#C7017F"/>
<path d="M17 20H23V26H17V20Z" fill="#C7017F"/>
<path d="M23 14H29V20H23V14Z" fill="#C7017F"/>
<path d="M11 26H17V32H11V26Z" fill="#C7017F"/>
<path d="M17 32H23V38H17V32Z" fill="#C7017F"/>
<path d="M5 32H11V38H5V32Z" fill="#C7017F"/>
<path d="M23 26H29V32H23V26Z" fill="#C7017F"/>
<path d="M17 8H23V14H17V8Z" fill="white"/>
<path d="M5 8H11V14H5V8Z" fill="#C7017F"/>
<path d="M29 8H35V14H29V8Z" fill="#C7017F"/>
<path d="M17 8H23V14H17V8Z" fill="#C7017F"/>
<path fill-rule="evenodd" clip-rule="evenodd" d="M39.3913 40.5334H33.1703C32.9303 40.5334 32.7178 40.7968 32.5869 41.0338H39.9748C39.8439 40.7968 39.6313 40.5334 39.3913 40.5334ZM40.4536 40.9791C40.2856 40.4248 39.8733 40.033 39.3913 40.033H33.1703C32.6883 40.033 32.2761 40.4248 32.108 40.9791C32.056 41.1508 32.0273 41.3381 32.0273 41.5342H40.5343C40.5343 41.3381 40.5057 41.1508 40.4536 40.9791Z" fill="#C7017F"/>
<path fill-rule="evenodd" clip-rule="evenodd" d="M38.2994 23.9689H33.7602C33.5977 23.9689 33.466 24.1038 33.466 24.2701C33.466 24.4365 33.5977 24.5714 33.7602 24.5714H38.2994C38.4619 24.5714 38.5936 24.4365 38.5936 24.2701C38.5936 24.1038 38.4619 23.9689 38.2994 23.9689ZM33.7602 23.5195C33.3554 23.5195 33.0273 23.8556 33.0273 24.2701C33.0273 24.6847 33.3554 25.0208 33.7602 25.0208H38.2994C38.7042 25.0208 39.0322 24.6847 39.0322 24.2701C39.0322 23.8556 38.7042 23.5195 38.2994 23.5195H33.7602Z" fill="#C7017F"/>
<path fill-rule="evenodd" clip-rule="evenodd" d="M36.0681 35.4578L36.0645 35.4578C35.2702 35.451 34.391 35.4542 33.7097 35.459C33.3692 35.4614 33.0784 35.4643 32.8728 35.4665C32.8503 35.4667 32.8287 35.467 32.8082 35.4672C32.5939 35.9739 32.4603 36.7426 32.4531 37.4966C32.449 37.9234 32.486 38.3195 32.5604 38.6322C32.6126 38.8516 32.6752 38.996 32.7303 39.0837H39.406C39.4611 38.996 39.5236 38.8516 39.5758 38.6322C39.6502 38.3195 39.6872 37.9234 39.6831 37.4966C39.676 36.7426 39.5423 35.9739 39.328 35.4672C39.3075 35.467 39.286 35.4667 39.2634 35.4665C39.0578 35.4643 38.7671 35.4614 38.4266 35.459C37.7452 35.4542 36.8661 35.451 36.0717 35.4578L36.0681 35.4578ZM39.5947 35.0453C40.2456 36.195 40.3141 38.9339 39.5947 39.5088H32.5415C31.8221 38.9339 31.8906 36.195 32.5415 35.0453C32.5415 35.0453 34.473 35.0192 36.0681 35.0327C37.6633 35.0192 39.5947 35.0453 39.5947 35.0453Z" fill="#C7017F"/>
<path fill-rule="evenodd" clip-rule="evenodd" d="M38.8512 31.6133C38.9601 31.8818 39.0322 32.0263 39.0322 32.0263H33.0273C33.0273 32.0263 33.0995 31.8818 33.2084 31.6133C33.5554 30.7581 34.2754 28.6451 34.2275 25.934C34.2251 25.7978 34.2208 25.6601 34.2144 25.521H37.8452C37.8388 25.6601 37.8345 25.7978 37.832 25.934C37.7841 28.6451 38.5042 30.7581 38.8512 31.6133ZM38.3876 31.6133C38.2623 31.291 38.1055 30.8448 37.9539 30.2956C37.6515 29.2001 37.3682 27.6899 37.3984 25.934H34.6612C34.6914 27.6899 34.4081 29.2001 34.1056 30.2956C33.954 30.8448 33.7973 31.291 33.672 31.6133H38.3876Z" fill="#C7017F"/>
<rect x="32.2721" y="32.7719" width="7.51614" height="1.51124" rx="0.755619" stroke="#C7017F" stroke-width="0.510417"/>
<path fill-rule="evenodd" clip-rule="evenodd" d="M35.7819 16.0643C35.9564 16.0643 36.0886 15.9243 36.0886 15.7631C36.0886 15.6018 35.9564 15.4618 35.7819 15.4618C35.6074 15.4618 35.4752 15.6018 35.4752 15.7631C35.4752 15.9243 35.6074 16.0643 35.7819 16.0643ZM35.7819 16.5137C36.1964 16.5137 36.5325 16.1776 36.5325 15.7631C36.5325 15.3485 36.1964 15.0125 35.7819 15.0125C35.3673 15.0125 35.0312 15.3485 35.0312 15.7631C35.0312 16.1776 35.3673 16.5137 35.7819 16.5137Z" fill="#C7017F"/>
<path fill-rule="evenodd" clip-rule="evenodd" d="M34.7134 17.0778C34.5033 17.0778 34.3813 17.1539 34.231 17.2505C34.2271 17.253 34.2232 17.2556 34.2192 17.2581C34.0932 17.3393 33.9245 17.4479 33.688 17.4479C33.4481 17.4479 33.2462 17.3355 33.0945 17.2511C33.0891 17.248 33.0837 17.2451 33.0785 17.2421C32.901 17.1435 32.7742 17.0778 32.6283 17.0778C32.4252 17.0778 32.2533 17.0968 32.135 17.1638C32.081 17.1943 32.0388 17.2347 32.0082 17.292C31.9769 17.3509 31.9519 17.4391 31.9519 17.5729C31.9519 18.0874 32.0673 18.3549 32.2831 18.8496C32.3133 18.9188 32.3455 18.9927 32.3792 19.0715C32.5072 19.3706 32.7809 19.6192 33.1 19.9029C33.1044 19.9069 33.1089 19.9109 33.1134 19.9149C33.3585 20.1328 33.6309 20.375 33.802 20.6614L33.8272 20.7035L33.8327 20.7128C34.1408 21.2279 34.4913 21.8138 34.5431 22.6443H37.208C37.2598 21.8138 37.6103 21.2279 37.9184 20.7128L37.9239 20.7035L37.9492 20.6614C38.1203 20.375 38.3927 20.1328 38.6378 19.9149L38.6512 19.9029C38.9702 19.6192 39.244 19.3706 39.3719 19.0715C39.4056 18.9927 39.4377 18.9191 39.4679 18.8499C39.6837 18.3552 39.7993 18.0874 39.7993 17.5729C39.7993 17.4391 39.7743 17.3509 39.7429 17.292C39.7124 17.2347 39.6701 17.1943 39.6161 17.1638C39.4978 17.0968 39.3259 17.0778 39.1228 17.0778C38.9769 17.0778 38.8501 17.1435 38.6727 17.2421C38.6674 17.2451 38.662 17.248 38.6566 17.2511C38.505 17.3355 38.303 17.4479 38.0632 17.4479C37.8266 17.4479 37.6579 17.3393 37.5319 17.2581C37.5279 17.2556 37.524 17.253 37.5201 17.2505C37.3698 17.1539 37.2478 17.0778 37.0377 17.0778C36.8886 17.0778 36.8151 17.1387 36.6787 17.2628L36.6734 17.2675C36.5995 17.3347 36.5041 17.4215 36.3783 17.4898C36.2451 17.562 36.0854 17.6101 35.8813 17.6156L35.8756 17.6158L35.8698 17.6156C35.6657 17.6101 35.506 17.562 35.3728 17.4898C35.247 17.4215 35.1516 17.3347 35.0777 17.2675L35.0725 17.2628C34.936 17.1387 34.8625 17.0778 34.7134 17.0778ZM34.0057 16.8919C34.1633 16.7907 34.3746 16.6548 34.7134 16.6548C35.0339 16.6548 35.2147 16.8193 35.3507 16.9431C35.3534 16.9455 35.356 16.9479 35.3586 16.9503C35.4369 17.0215 35.4985 17.0763 35.5757 17.1182C35.6476 17.1572 35.7399 17.1881 35.8756 17.1926C36.0113 17.1881 36.1035 17.1572 36.1754 17.1182C36.2526 17.0763 36.3142 17.0215 36.3925 16.9503C36.3951 16.9479 36.3978 16.9455 36.4004 16.9431C36.5364 16.8193 36.7172 16.6548 37.0377 16.6548C37.3765 16.6548 37.5879 16.7907 37.7454 16.8919L37.7502 16.8951C37.8871 16.983 37.9603 17.0249 38.0632 17.0249C38.1826 17.0249 38.2936 16.9684 38.4659 16.8727C38.4706 16.8701 38.4754 16.8674 38.4802 16.8647C38.6415 16.775 38.8575 16.6548 39.1228 16.6548C39.3298 16.6548 39.6023 16.6695 39.8258 16.796C39.9427 16.8621 40.0458 16.9584 40.1178 17.0936C40.189 17.2271 40.2238 17.3871 40.2238 17.5729C40.2238 18.1781 40.0772 18.5142 39.8603 19.0114L39.8573 19.0183C39.8271 19.0876 39.7955 19.16 39.7624 19.2373C39.5937 19.6319 39.2486 19.9387 38.9516 20.2027C38.9457 20.208 38.9398 20.2133 38.9338 20.2185C38.6725 20.451 38.4482 20.653 38.3139 20.8778L38.2886 20.9201C37.9539 21.4796 37.626 22.0332 37.626 22.8558V23.0673H34.1251V22.8558C34.1251 22.0332 33.7972 21.4796 33.4625 20.9201L33.4372 20.8778C33.3029 20.653 33.0787 20.451 32.8173 20.2185C32.8114 20.2133 32.8054 20.208 32.7995 20.2027C32.5026 19.9387 32.1575 19.6319 31.9887 19.2373C31.9556 19.16 31.924 19.0876 31.8938 19.0183L31.8908 19.0114C31.6739 18.5142 31.5273 18.1781 31.5273 17.5729C31.5273 17.3871 31.5622 17.2271 31.6333 17.0936C31.7053 16.9584 31.8084 16.8621 31.9253 16.796C32.1488 16.6695 32.4213 16.6548 32.6283 16.6548C32.8936 16.6548 33.1097 16.775 33.2709 16.8647C33.2757 16.8674 33.2805 16.8701 33.2852 16.8727C33.4575 16.9684 33.5685 17.0249 33.688 17.0249C33.7909 17.0249 33.8641 16.983 34.0009 16.8951L34.0057 16.8919Z" fill="#C7017F"/>
<path d="M33.4372 20.8778L33.4625 20.9201C33.7972 21.4796 34.1251 22.0332 34.1251 22.8558V23.0673H37.626V22.8558C37.626 22.0332 37.9539 21.4796 38.2886 20.9201L38.3139 20.8778C38.4482 20.653 38.6725 20.451 38.9338 20.2185C38.9398 20.2133 38.9457 20.208 38.9516 20.2027C39.2486 19.9387 39.5937 19.6319 39.7624 19.2373C39.7955 19.16 39.8271 19.0876 39.8573 19.0183L39.8603 19.0114C40.0772 18.5142 40.2238 18.1781 40.2238 17.5729C40.2238 17.3871 40.189 17.2271 40.1178 17.0936C40.0458 16.9584 39.9427 16.8621 39.8258 16.796C39.6023 16.6695 39.3298 16.6548 39.1228 16.6548C38.8575 16.6548 38.6415 16.775 38.4802 16.8647C38.4754 16.8674 38.4706 16.8701 38.4659 16.8727C38.2936 16.9684 38.1826 17.0249 38.0632 17.0249C37.9603 17.0249 37.8871 16.983 37.7502 16.8951L37.7454 16.8919C37.5879 16.7907 37.3765 16.6548 37.0377 16.6548C36.7172 16.6548 36.5364 16.8193 36.4004 16.9431C36.3978 16.9455 36.3951 16.9479 36.3925 16.9503C36.3142 17.0215 36.2526 17.0763 36.1754 17.1182C36.1035 17.1572 36.0113 17.1881 35.8756 17.1926C35.7399 17.1881 35.6476 17.1572 35.5757 17.1182C35.4985 17.0763 35.4369 17.0215 35.3586 16.9503C35.356 16.9479 35.3534 16.9455 35.3507 16.9431C35.2147 16.8193 35.0339 16.6548 34.7134 16.6548C34.3746 16.6548 34.1633 16.7907 34.0057 16.8919L34.0009 16.8951C33.8641 16.983 33.7909 17.0249 33.688 17.0249C33.5685 17.0249 33.4575 16.9684 33.2852 16.8727C33.2805 16.8701 33.2757 16.8674 33.2709 16.8647C33.1097 16.775 32.8936 16.6548 32.6283 16.6548C32.4213 16.6548 32.1488 16.6695 31.9253 16.796C31.8084 16.8621 31.7053 16.9584 31.6333 17.0936C31.5622 17.2271 31.5273 17.3871 31.5273 17.5729C31.5273 18.1781 31.6739 18.5142 31.8908 19.0114L31.8938 19.0183C31.924 19.0876 31.9556 19.16 31.9887 19.2373C32.1575 19.6319 32.5026 19.9387 32.7995 20.2027C32.8054 20.208 32.8114 20.2133 32.8173 20.2185C33.0787 20.451 33.3029 20.653 33.4372 20.8778ZM33.4372 20.8778L33.6196 20.7696M34.231 17.2505C34.3813 17.1539 34.5033 17.0778 34.7134 17.0778C34.8625 17.0778 34.936 17.1387 35.0725 17.2628L35.0777 17.2675C35.1516 17.3347 35.247 17.4215 35.3728 17.4898C35.506 17.562 35.6657 17.6101 35.8698 17.6156L35.8756 17.6158L35.8813 17.6156C36.0854 17.6101 36.2451 17.562 36.3783 17.4898C36.5041 17.4215 36.5995 17.3347 36.6734 17.2675L36.6787 17.2628C36.8151 17.1387 36.8886 17.0778 37.0377 17.0778C37.2478 17.0778 37.3698 17.1539 37.5201 17.2505C37.524 17.253 37.5279 17.2556 37.5319 17.2581C37.6579 17.3393 37.8266 17.4479 38.0632 17.4479C38.303 17.4479 38.505 17.3355 38.6566 17.2511C38.662 17.248 38.6674 17.2451 38.6727 17.2421C38.8501 17.1435 38.9769 17.0778 39.1228 17.0778C39.3259 17.0778 39.4978 17.0968 39.6161 17.1638C39.6701 17.1943 39.7124 17.2347 39.7429 17.292C39.7743 17.3509 39.7993 17.4391 39.7993 17.5729C39.7993 18.0874 39.6837 18.3552 39.4679 18.8499C39.4377 18.9191 39.4056 18.9927 39.3719 19.0715C39.244 19.3706 38.9702 19.6192 38.6512 19.9029L38.6378 19.9149C38.3927 20.1328 38.1203 20.375 37.9492 20.6614L37.9239 20.7035L37.9184 20.7128C37.6103 21.2279 37.2598 21.8138 37.208 22.6443H34.5431C34.4913 21.8138 34.1408 21.2279 33.8327 20.7128L33.8272 20.7035L33.802 20.6614C33.6309 20.375 33.3585 20.1328 33.1134 19.9149C33.1089 19.9109 33.1044 19.9069 33.1 19.9029C32.7809 19.6192 32.5072 19.3706 32.3792 19.0715C32.3455 18.9927 32.3133 18.9188 32.2831 18.8496C32.0673 18.3549 31.9519 18.0874 31.9519 17.5729C31.9519 17.4391 31.9769 17.3509 32.0082 17.292C32.0388 17.2347 32.081 17.1943 32.135 17.1638C32.2533 17.0968 32.4252 17.0778 32.6283 17.0778C32.7742 17.0778 32.901 17.1435 33.0785 17.2421C33.0837 17.2451 33.0891 17.248 33.0945 17.2511C33.2462 17.3355 33.4481 17.4479 33.688 17.4479C33.9245 17.4479 34.0932 17.3393 34.2192 17.2581C34.2232 17.2556 34.2271 17.253 34.231 17.2505Z" stroke="#C7017F" stroke-width="0.11772"/>
<path d="M32.5273 17.7646C32.5273 18.0983 32.7775 18.7655 33.0278 19.0157C33.278 19.2659 33.5282 19.4327 33.7784 19.7663" stroke="#C7017F" stroke-width="0.510417" stroke-linecap="round"/>
<path d="M35.2506 27C35.1672 28.0842 34.9003 30.0025 34.5 31.0033" stroke="#C7017F" stroke-width="0.510417" stroke-linecap="round"/>
<path d="M33.1693 36.0293C32.9194 36.5297 32.9691 38.131 33.1693 38.5313" stroke="#C7017F" stroke-width="0.510417" stroke-linecap="round"/>
<circle cx="34.2502" cy="20.2502" r="0.250204" fill="#C7017F"/>
</svg>
