<svg width="50" height="50" viewBox="0 0 50 50" fill="none" xmlns="http://www.w3.org/2000/svg">
<path fill-rule="evenodd" clip-rule="evenodd" d="M21.9119 7.73693C19.2763 7.23146 17.4617 7.20355 14.8334 7.72791C14.4534 7.80371 14.1741 8.14606 14.1741 8.55308V14.0457C14.2503 14.0362 14.3332 14.0261 14.4225 14.0152C14.953 13.9509 15.7079 13.8637 16.6067 13.7722C18.2721 13.6026 20.4368 13.4176 22.5854 13.3358V12.4505V8.56887C22.5854 8.15819 22.3 7.81137 21.9119 7.73693ZM13.1324 14.1777V8.55308C13.1324 7.66978 13.7427 6.8833 14.6296 6.70638C17.4006 6.15355 19.3515 6.18523 22.1081 6.71391C23.0027 6.88549 23.6271 7.67481 23.6271 8.56887V11.9297H26.1998V8.55308C26.1998 7.66978 26.8101 6.8833 27.6969 6.70638C30.468 6.15355 32.4189 6.18523 35.1755 6.71391C36.0701 6.88549 36.6944 7.6748 36.6944 8.56887V14.2124L40.9256 14.7407C41.6765 14.8344 42.2651 15.4317 42.3466 16.1844L43.231 24.3557C43.3071 25.0592 42.9262 25.6963 42.3384 25.9907C43.1506 29.9436 44.1968 35.466 44.4309 38.7483C44.4993 39.7071 43.804 40.5094 42.8728 40.63C41.5965 40.7952 39.3936 41.0207 36.8687 41.0207C34.3438 41.0207 32.1408 40.7952 30.8646 40.63C29.9334 40.5094 29.2381 39.7071 29.3065 38.7483C29.5372 35.5134 30.5567 30.1025 31.3637 26.1629H28.4351C28.3151 26.1629 28.2011 26.1991 28.1057 26.2629V26.3363L27.9678 26.3914C27.9362 26.432 27.9097 26.4772 27.8892 26.5262L27.7645 26.8252C27.5108 27.4334 26.9161 27.8292 26.2572 27.8292H23.2916C22.6327 27.8292 22.038 27.4334 21.7843 26.8252L21.6596 26.5262C21.5679 26.3064 21.3527 26.1629 21.1137 26.1629H18.1852C18.9921 30.1025 20.0116 35.5134 20.2424 38.7483C20.3108 39.7071 19.6154 40.5094 18.6842 40.63C17.408 40.7952 15.205 41.0207 12.6801 41.0207C10.1553 41.0207 7.9523 40.7952 6.67605 40.63L6.74293 40.1134L6.67605 40.63C5.74485 40.5094 5.04953 39.7071 5.11792 38.7483C5.35205 35.466 6.39819 29.9436 7.21045 25.9907C6.62266 25.6963 6.24173 25.0592 6.31786 24.3557L7.20225 16.1843C7.2837 15.4317 7.87229 14.8344 8.62326 14.7407L13.1324 14.1777ZM28.4351 25.1212C28.323 25.1212 28.2127 25.1327 28.1057 25.1547V23.8369H27.6886V14.3718C28.3437 14.3875 28.9975 14.4178 29.6348 14.4579V25.1212H28.4351ZM26.7206 14.3599C26.8577 14.3599 26.9951 14.3607 27.1326 14.3621V23.8369H26.7155V26.5703C26.6051 26.7054 26.438 26.7875 26.2572 26.7875H23.2916C23.1718 26.7875 23.058 26.7514 22.9627 26.6878V23.8369H22.5457V14.3798C22.738 14.3722 22.9303 14.3655 23.122 14.3597L23.6271 14.3444V13.8391V12.9713H26.1998V13.8391V14.3599H26.7206ZM21.5726 23.8369V25.1869C21.4258 25.1439 21.2716 25.1212 21.1137 25.1212H20.0434V14.5194C20.6793 14.4745 21.3331 14.4348 21.9896 14.4038V23.8369H21.5726ZM19.4874 14.5602V25.1212H17.5465H17.5461L7.84943 25.1142C7.54314 25.0671 7.31915 24.785 7.35348 24.4678L8.23787 16.2964C8.26727 16.0248 8.47989 15.8083 8.75232 15.7743L13.7178 15.1543L13.7178 15.1544L13.7232 15.1536L13.7233 15.1536L13.7239 15.1535L13.7264 15.1532L13.7365 15.1518L13.7773 15.1464C13.8135 15.1416 13.8675 15.1345 13.9379 15.1255C14.0787 15.1073 14.2853 15.0812 14.5479 15.0493C15.0729 14.9857 15.8211 14.8993 16.7122 14.8085C17.5372 14.7245 18.4834 14.6369 19.4874 14.5602ZM30.1909 25.1212V14.4956C31.2467 14.5722 32.2432 14.6724 33.1072 14.773C33.9959 14.8764 34.742 14.9798 35.2654 15.0573C35.5271 15.096 35.733 15.1282 35.8731 15.1507C35.9431 15.1619 35.9967 15.1707 36.0325 15.1767L36.0729 15.1834L36.0828 15.1851L36.0851 15.1855L36.0856 15.1856L36.0857 15.1856L36.0857 15.1856L36.0974 15.1876L36.1091 15.1891L40.7965 15.7743C41.0689 15.8083 41.2816 16.0248 41.311 16.2964L41.8288 16.2404L41.311 16.2964L42.1953 24.4678C42.2297 24.785 42.0057 25.0671 41.6994 25.1142L32.0027 25.1212H32.0024H30.1909ZM8.23989 26.1562C7.42483 30.1196 6.3864 35.6057 6.15695 38.8224C6.12946 39.2078 6.4031 39.5443 6.80982 39.5969C8.05747 39.7585 10.2135 39.979 12.6801 39.979C15.1468 39.979 17.3028 39.7585 18.5505 39.5969C18.9572 39.5443 19.2308 39.2078 19.2033 38.8224C18.974 35.6075 17.9366 30.1256 17.1217 26.1626L8.23989 26.1562ZM41.3089 26.1562L32.4271 26.1626C31.6122 30.1256 30.5748 35.6075 30.3455 38.8224C30.318 39.2078 30.5916 39.5443 30.9984 39.5969C32.246 39.7585 34.402 39.979 36.8687 39.979C39.3353 39.979 41.4914 39.7585 42.739 39.5969C43.1457 39.5443 43.4194 39.2078 43.3919 38.8224C43.1624 35.6057 42.124 30.1197 41.3089 26.1562ZM35.6528 14.0621V8.56887C35.6528 8.15819 35.3674 7.81137 34.9793 7.73693C32.3437 7.23146 30.5291 7.20355 27.9007 7.72791C27.5208 7.80371 27.2415 8.14606 27.2415 8.55308V12.4515V13.3217C29.3953 13.3497 31.5621 13.5445 33.2276 13.7383C34.1288 13.8432 34.8857 13.9481 35.4179 14.0268C35.5019 14.0393 35.5803 14.051 35.6528 14.0621ZM9.06855 27.8123C9.14144 27.4828 9.43638 27.2501 9.78216 27.2501H10.5014C10.6395 27.2501 10.7514 27.1381 10.7514 27.0001C10.7514 26.862 10.6395 26.7501 10.5014 26.7501H9.78216C9.2102 26.7501 8.70568 27.1377 8.58035 27.7043C8.04677 30.1165 7.20062 34.8906 6.75331 38.469C6.73619 38.606 6.83337 38.731 6.97037 38.7481C7.10738 38.7652 7.23232 38.6681 7.24945 38.5311C7.69488 34.9676 8.53843 30.2089 9.06855 27.8123ZM9.03239 16.252C9.16939 16.2691 9.26658 16.3941 9.24945 16.5311L8.24945 24.5311C8.23232 24.6681 8.10738 24.7653 7.97037 24.7481C7.83337 24.731 7.73619 24.6061 7.75331 24.4691L8.75331 16.4691C8.77044 16.3321 8.89538 16.2349 9.03239 16.252ZM11.2514 27.2501C11.3894 27.2501 11.5014 27.1381 11.5014 27.0001C11.5014 26.862 11.3894 26.7501 11.2514 26.7501C11.1133 26.7501 11.0014 26.862 11.0014 27.0001C11.0014 27.1381 11.1133 27.2501 11.2514 27.2501ZM33.7822 27.2501C33.4364 27.2501 33.1414 27.4828 33.0686 27.8123C32.5384 30.2089 31.6949 34.9676 31.2495 38.5311C31.2323 38.6681 31.1074 38.7652 30.9704 38.7481C30.8334 38.731 30.7362 38.606 30.7533 38.469C31.2006 34.8906 32.0468 30.1165 32.5804 27.7043C32.7057 27.1377 33.2102 26.7501 33.7822 26.7501H34.5014C34.6395 26.7501 34.7514 26.862 34.7514 27.0001C34.7514 27.1381 34.6395 27.2501 34.5014 27.2501H33.7822ZM35.2514 27.2501C35.3894 27.2501 35.5014 27.1381 35.5014 27.0001C35.5014 26.862 35.3894 26.7501 35.2514 26.7501C35.1133 26.7501 35.0014 26.862 35.0014 27.0001C35.0014 27.1381 35.1133 27.2501 35.2514 27.2501ZM15.0014 8.25005C15.1394 8.25005 15.2514 8.36198 15.2514 8.50005V13.0001C15.2514 13.1381 15.1394 13.2501 15.0014 13.2501C14.8633 13.2501 14.7514 13.1381 14.7514 13.0001V8.50005C14.7514 8.36198 14.8633 8.25005 15.0014 8.25005ZM28.2514 8.50005C28.2514 8.36198 28.1394 8.25005 28.0014 8.25005C27.8633 8.25005 27.7514 8.36198 27.7514 8.50005V12.5001C27.7514 12.6381 27.8633 12.7501 28.0014 12.7501C28.1394 12.7501 28.2514 12.6381 28.2514 12.5001V8.50005Z" fill="#C7017F"/>
</svg>
