<svg width="49" height="49" viewBox="0 0 49 49" fill="none" xmlns="http://www.w3.org/2000/svg">
<path d="M27.0186 20.7526C27.0281 20.7994 27.0363 20.8107 27.0438 20.7943C27.0158 20.7132 27.0066 20.6933 27.0186 20.7526Z" fill="black"/>
<path fill-rule="evenodd" clip-rule="evenodd" d="M14.3781 29.9617C14.1809 29.7645 14.1809 29.4447 14.3781 29.2475L22.249 21.3765C22.4462 21.1793 22.766 21.1793 22.9632 21.3765C23.1604 21.5738 23.1604 21.8935 22.9632 22.0907L15.0923 29.9617C14.8951 30.1589 14.5753 30.1589 14.3781 29.9617Z" fill="#C7017F"/>
<path fill-rule="evenodd" clip-rule="evenodd" d="M6.61195 11.0146C5.15862 11.0146 3.98047 12.1928 3.98047 13.6461V33.3927C3.98047 34.846 5.15862 36.0242 6.61195 36.0242H18.6402C20.0936 36.0242 21.2717 34.846 21.2717 33.3927V25.2069L20.2717 26.2828V33.3927C20.2717 34.2937 19.5413 35.0242 18.6402 35.0242H6.61195C5.71091 35.0242 4.98047 34.2937 4.98047 33.3927V13.6461C4.98047 12.7451 5.71091 12.0146 6.61195 12.0146H18.6402C19.5413 12.0146 20.2717 12.7451 20.2717 13.6461V21.7306L21.2717 20.6547V13.6461C21.2717 12.1928 20.0936 11.0146 18.6402 11.0146H6.61195Z" fill="#C7017F"/>
<rect x="6" y="15" width="13" height="1" rx="0.5" fill="#C7017F"/>
<rect x="6" y="17" width="13" height="1" rx="0.5" fill="#C7017F"/>
<rect x="6" y="19" width="13" height="1" rx="0.5" fill="#C7017F"/>
<rect x="6" y="21" width="13" height="1" rx="0.5" fill="#C7017F"/>
<rect x="6" y="23" width="7" height="1" rx="0.5" fill="#C7017F"/>
<mask id="path-11-outside-1" maskUnits="userSpaceOnUse" x="28.3633" y="5.69653" width="14" height="10" fill="black">
<rect fill="white" x="28.3633" y="5.69653" width="14" height="10"/>
<path fill-rule="evenodd" clip-rule="evenodd" d="M30.9086 6.69653C30.0551 6.69653 29.3633 7.3884 29.3633 8.24186V11.8476C29.3633 12.7011 30.0551 13.3929 30.9086 13.3929H34.5144V14.4231L35.5446 13.3929H40.1805C41.034 13.3929 41.7259 12.7011 41.7259 11.8476V8.24186C41.7259 7.3884 41.034 6.69653 40.1805 6.69653H30.9086Z"/>
</mask>
<path d="M34.5144 13.3929H35.0295V12.8778H34.5144V13.3929ZM34.5144 14.4231H33.9992V15.6667L34.8786 14.7874L34.5144 14.4231ZM35.5446 13.3929V12.8778H35.3312L35.1803 13.0287L35.5446 13.3929ZM29.8784 8.24186C29.8784 7.67288 30.3396 7.21164 30.9086 7.21164V6.18143C29.7707 6.18143 28.8482 7.10391 28.8482 8.24186H29.8784ZM29.8784 11.8476V8.24186H28.8482V11.8476H29.8784ZM30.9086 12.8778C30.3396 12.8778 29.8784 12.4166 29.8784 11.8476H28.8482C28.8482 12.9856 29.7707 13.908 30.9086 13.908V12.8778ZM34.5144 12.8778H30.9086V13.908H34.5144V12.8778ZM33.9992 13.3929V14.4231H35.0295V13.3929H33.9992ZM34.8786 14.7874L35.9088 13.7572L35.1803 13.0287L34.1501 14.0589L34.8786 14.7874ZM40.1805 12.8778H35.5446V13.908H40.1805V12.8778ZM41.2108 11.8476C41.2108 12.4166 40.7495 12.8778 40.1805 12.8778V13.908C41.3185 13.908 42.241 12.9856 42.241 11.8476H41.2108ZM41.2108 8.24186V11.8476H42.241V8.24186H41.2108ZM40.1805 7.21164C40.7495 7.21164 41.2108 7.67288 41.2108 8.24186H42.241C42.241 7.10391 41.3185 6.18143 40.1805 6.18143V7.21164ZM30.9086 7.21164H40.1805V6.18143H30.9086V7.21164Z" fill="#C7017F" mask="url(#path-11-outside-1)"/>
<path fill-rule="evenodd" clip-rule="evenodd" d="M30.3301 18.0288C28.4871 18.0288 27.0128 18.9672 27.0128 21.8297C27.0128 23.4714 27.7402 24.7179 28.5693 25.4766L24.2935 27.4518C23.9288 27.6203 23.6953 27.9854 23.6953 28.3871V32.7556C23.6953 33.3246 24.1566 33.7858 24.7255 33.7858H35.9343C36.5032 33.7858 36.9645 33.3246 36.9645 32.7556V28.3871C36.9645 27.9854 36.731 27.6203 36.3663 27.4518L32.0712 25.4677C32.9084 24.7164 33.6474 23.4843 33.6474 21.8297C33.6474 18.9672 32.173 18.0288 30.3301 18.0288Z" fill="#C7017F"/>
<path d="M40.176 19.3594C40.176 17.5814 41.0918 16.9986 42.2364 16.9986C43.3811 16.9986 44.2969 17.5814 44.2969 19.3594C44.2969 21.1373 42.9233 22.1298 42.2364 22.1494C41.5496 22.169 40.176 21.1373 40.176 19.3594Z" fill="#C7017F"/>
<path fill-rule="evenodd" clip-rule="evenodd" d="M40.6705 21.8435L38.7154 22.7467C38.3507 22.9152 38.1172 23.2803 38.1172 23.682V25.7554C38.1172 26.3243 38.5784 26.7856 39.1474 26.7856H45.3287C45.8977 26.7856 46.3589 26.3243 46.3589 25.7554V23.682C46.3589 23.2803 46.1254 22.9152 45.7607 22.7467L43.7934 21.8379C43.2682 22.3691 42.6529 22.653 42.238 22.6644C41.82 22.6758 41.1983 22.3881 40.6705 21.8435Z" fill="#C7017F"/>
</svg>
